<mxfile host="app.diagrams.net" agent="Mozilla/5.0 (Windows NT 10.0; Win64; x64) AppleWebKit/537.36 (KHTML, like Gecko) Chrome/129.0.0.0 Safari/537.36" version="24.8.0">
  <diagram name="Сторінка-1" id="-LWAt7V8pboI05wlyp6I">
    <mxGraphModel grid="1" page="1" gridSize="10" guides="1" tooltips="1" connect="1" arrows="1" fold="1" pageScale="1" pageWidth="827" pageHeight="1169" math="0" shadow="0">
      <root>
        <mxCell id="0" />
        <mxCell id="1" parent="0" />
        <mxCell id="2M74sRwex-00wjm4hL5e-3" style="edgeStyle=orthogonalEdgeStyle;rounded=0;orthogonalLoop=1;jettySize=auto;html=1;entryX=0.5;entryY=0;entryDx=0;entryDy=0;" edge="1" parent="1" source="2M74sRwex-00wjm4hL5e-1" target="2M74sRwex-00wjm4hL5e-2">
          <mxGeometry relative="1" as="geometry" />
        </mxCell>
        <mxCell id="2M74sRwex-00wjm4hL5e-1" value="Start" style="ellipse;whiteSpace=wrap;html=1;fillColor=#d5e8d4;strokeColor=#82b366;" vertex="1" parent="1">
          <mxGeometry x="354" y="200" width="120" height="80" as="geometry" />
        </mxCell>
        <mxCell id="2M74sRwex-00wjm4hL5e-4" style="edgeStyle=orthogonalEdgeStyle;rounded=0;orthogonalLoop=1;jettySize=auto;html=1;" edge="1" parent="1" source="2M74sRwex-00wjm4hL5e-2" target="2M74sRwex-00wjm4hL5e-5">
          <mxGeometry relative="1" as="geometry">
            <mxPoint x="410" y="550" as="targetPoint" />
          </mxGeometry>
        </mxCell>
        <mxCell id="2M74sRwex-00wjm4hL5e-2" value="int n,m;" style="rounded=0;whiteSpace=wrap;html=1;" vertex="1" parent="1">
          <mxGeometry x="354" y="310" width="120" height="60" as="geometry" />
        </mxCell>
        <mxCell id="2M74sRwex-00wjm4hL5e-6" style="edgeStyle=orthogonalEdgeStyle;rounded=0;orthogonalLoop=1;jettySize=auto;html=1;" edge="1" parent="1" source="2M74sRwex-00wjm4hL5e-5" target="2M74sRwex-00wjm4hL5e-7">
          <mxGeometry relative="1" as="geometry">
            <mxPoint x="410" y="640" as="targetPoint" />
          </mxGeometry>
        </mxCell>
        <mxCell id="2M74sRwex-00wjm4hL5e-5" value="cin n,m" style="shape=parallelogram;perimeter=parallelogramPerimeter;whiteSpace=wrap;html=1;fixedSize=1;" vertex="1" parent="1">
          <mxGeometry x="354" y="400" width="120" height="60" as="geometry" />
        </mxCell>
        <mxCell id="2M74sRwex-00wjm4hL5e-8" style="edgeStyle=orthogonalEdgeStyle;rounded=0;orthogonalLoop=1;jettySize=auto;html=1;" edge="1" parent="1" source="2M74sRwex-00wjm4hL5e-7" target="2M74sRwex-00wjm4hL5e-9">
          <mxGeometry relative="1" as="geometry">
            <mxPoint x="410" y="720" as="targetPoint" />
          </mxGeometry>
        </mxCell>
        <mxCell id="2M74sRwex-00wjm4hL5e-7" value="int op_1 = m - (++n)" style="rounded=0;whiteSpace=wrap;html=1;" vertex="1" parent="1">
          <mxGeometry x="354" y="480" width="120" height="60" as="geometry" />
        </mxCell>
        <mxCell id="2M74sRwex-00wjm4hL5e-10" style="edgeStyle=orthogonalEdgeStyle;rounded=0;orthogonalLoop=1;jettySize=auto;html=1;" edge="1" parent="1" source="2M74sRwex-00wjm4hL5e-9" target="2M74sRwex-00wjm4hL5e-11">
          <mxGeometry relative="1" as="geometry">
            <mxPoint x="410" y="820" as="targetPoint" />
          </mxGeometry>
        </mxCell>
        <mxCell id="2M74sRwex-00wjm4hL5e-9" value="op_1" style="shape=parallelogram;perimeter=parallelogramPerimeter;whiteSpace=wrap;html=1;fixedSize=1;" vertex="1" parent="1">
          <mxGeometry x="354" y="560" width="120" height="60" as="geometry" />
        </mxCell>
        <mxCell id="2M74sRwex-00wjm4hL5e-12" style="edgeStyle=orthogonalEdgeStyle;rounded=0;orthogonalLoop=1;jettySize=auto;html=1;" edge="1" parent="1" source="2M74sRwex-00wjm4hL5e-11" target="2M74sRwex-00wjm4hL5e-13">
          <mxGeometry relative="1" as="geometry">
            <mxPoint x="410" y="900" as="targetPoint" />
          </mxGeometry>
        </mxCell>
        <mxCell id="2M74sRwex-00wjm4hL5e-11" value="bool op_2 = (++m) &amp;gt; (--n)" style="rounded=0;whiteSpace=wrap;html=1;" vertex="1" parent="1">
          <mxGeometry x="339" y="650" width="150" height="60" as="geometry" />
        </mxCell>
        <mxCell id="2M74sRwex-00wjm4hL5e-15" style="edgeStyle=orthogonalEdgeStyle;rounded=0;orthogonalLoop=1;jettySize=auto;html=1;" edge="1" parent="1" source="2M74sRwex-00wjm4hL5e-13" target="2M74sRwex-00wjm4hL5e-14">
          <mxGeometry relative="1" as="geometry" />
        </mxCell>
        <mxCell id="2M74sRwex-00wjm4hL5e-13" value="op_2" style="shape=parallelogram;perimeter=parallelogramPerimeter;whiteSpace=wrap;html=1;fixedSize=1;" vertex="1" parent="1">
          <mxGeometry x="354" y="740" width="120" height="60" as="geometry" />
        </mxCell>
        <mxCell id="2M74sRwex-00wjm4hL5e-16" style="edgeStyle=orthogonalEdgeStyle;rounded=0;orthogonalLoop=1;jettySize=auto;html=1;" edge="1" parent="1" source="2M74sRwex-00wjm4hL5e-14" target="2M74sRwex-00wjm4hL5e-17">
          <mxGeometry relative="1" as="geometry">
            <mxPoint x="410" y="1100" as="targetPoint" />
          </mxGeometry>
        </mxCell>
        <mxCell id="2M74sRwex-00wjm4hL5e-14" value="bool op_3 = (--n) &amp;lt; (++m)" style="rounded=0;whiteSpace=wrap;html=1;" vertex="1" parent="1">
          <mxGeometry x="334" y="830" width="160" height="60" as="geometry" />
        </mxCell>
        <mxCell id="2M74sRwex-00wjm4hL5e-18" style="edgeStyle=orthogonalEdgeStyle;rounded=0;orthogonalLoop=1;jettySize=auto;html=1;" edge="1" parent="1" source="2M74sRwex-00wjm4hL5e-17" target="2M74sRwex-00wjm4hL5e-19">
          <mxGeometry relative="1" as="geometry">
            <mxPoint x="410" y="1130" as="targetPoint" />
          </mxGeometry>
        </mxCell>
        <mxCell id="2M74sRwex-00wjm4hL5e-17" value="op_3" style="shape=parallelogram;perimeter=parallelogramPerimeter;whiteSpace=wrap;html=1;fixedSize=1;" vertex="1" parent="1">
          <mxGeometry x="354" y="920" width="120" height="60" as="geometry" />
        </mxCell>
        <mxCell id="2M74sRwex-00wjm4hL5e-19" value="End" style="ellipse;whiteSpace=wrap;html=1;fillColor=#f8cecc;strokeColor=#b85450;" vertex="1" parent="1">
          <mxGeometry x="354" y="1010" width="120" height="80" as="geometry" />
        </mxCell>
      </root>
    </mxGraphModel>
  </diagram>
</mxfile>
